HIERARCHY
ROOT Hips
{
    OFFSET   0.000000   0.000000   0.000000
    CHANNELS 6 Xposition Yposition Zposition Zrotation Xrotation Yrotation
    JOINT Chest
    {
        OFFSET   0.000000   8.007230   0.000000
        CHANNELS 3 Zrotation Xrotation Yrotation
        JOINT Chest2
        {
            OFFSET   0.000000  22.077100   0.000000
            CHANNELS 3 Zrotation Xrotation Yrotation
            JOINT Neck
            {
                OFFSET   0.000000  23.254800  -0.000021
                CHANNELS 3 Zrotation Xrotation Yrotation
                JOINT Head
                {
                    OFFSET   0.000000  14.370000   1.956610
                    CHANNELS 3 Zrotation Xrotation Yrotation
                    End Site
                    {
                        OFFSET   0.000000  19.566000   0.000000
                    }
                }
            }
            JOINT LeftCollar
            {
                OFFSET   3.911900  19.017000  -0.467063
                CHANNELS 3 Zrotation Xrotation Yrotation
                JOINT LeftShoulder
                {
                    OFFSET  10.383700   0.000000   0.000000
                    CHANNELS 3 Zrotation Xrotation Yrotation
                    JOINT LeftElbow
                    {
                        OFFSET  26.662100   0.001529   0.000325
                        CHANNELS 3 Zrotation Xrotation Yrotation
                        JOINT LeftWrist
                        {
                            OFFSET  28.869000  -0.000011  -0.000096
                            CHANNELS 3 Zrotation Xrotation Yrotation
                            JOINT LeftFinger0
                            {
                                OFFSET   2.044650  -2.323460   3.252850
                                CHANNELS 3 Zrotation Xrotation Yrotation
                                JOINT LeftFinger01
                                {
                                    OFFSET   3.088130   0.000000   0.000000
                                    CHANNELS 3 Zrotation Xrotation Yrotation
                                    JOINT LeftFinger02
                                    {
                                        OFFSET   2.639460   0.000000   0.000000
                                        CHANNELS 3 Zrotation Xrotation Yrotation
                                        End Site
                                        {
                                            OFFSET   2.582190   0.000000   0.000000
                                        }
                                    }
                                }
                            }
                            JOINT LeftFinger1
                            {
                                OFFSET   8.364480   0.000000   3.252850
                                CHANNELS 3 Zrotation Xrotation Yrotation
                                JOINT LeftFinger11
                                {
                                    OFFSET   4.646930   0.000000   0.000000
                                    CHANNELS 3 Zrotation Xrotation Yrotation
                                    JOINT LeftFinger12
                                    {
                                        OFFSET   2.323460   0.000000   0.000000
                                        CHANNELS 3 Zrotation Xrotation Yrotation
                                        End Site
                                        {
                                            OFFSET   2.273050   0.000000   0.000000
                                        }
                                    }
                                }
                            }
                            JOINT LeftFinger2
                            {
                                OFFSET   8.364480   0.000016   1.078090
                                CHANNELS 3 Zrotation Xrotation Yrotation
                                JOINT LeftFinger21
                                {
                                    OFFSET   5.111620   0.000000   0.000000
                                    CHANNELS 3 Zrotation Xrotation Yrotation
                                    JOINT LeftFinger22
                                    {
                                        OFFSET   2.788160   0.000017   0.000000
                                        CHANNELS 3 Zrotation Xrotation Yrotation
                                        End Site
                                        {
                                            OFFSET   2.727660   0.000000   0.000000
                                        }
                                    }
                                }
                            }
                            JOINT LeftFinger3
                            {
                                OFFSET   7.899780   0.000015  -1.078090
                                CHANNELS 3 Zrotation Xrotation Yrotation
                                JOINT LeftFinger31
                                {
                                    OFFSET   4.646920   0.000000   0.000000
                                    CHANNELS 3 Zrotation Xrotation Yrotation
                                    JOINT LeftFinger32
                                    {
                                        OFFSET   2.323470   0.000000   0.000000
                                        CHANNELS 3 Zrotation Xrotation Yrotation
                                        End Site
                                        {
                                            OFFSET   2.273050   0.000000   0.000000
                                        }
                                    }
                                }
                            }
                            JOINT LeftFinger4
                            {
                                OFFSET   7.435090   0.000000  -3.252850
                                CHANNELS 3 Zrotation Xrotation Yrotation
                                JOINT LeftFinger41
                                {
                                    OFFSET   3.717550   0.000000   0.000000
                                    CHANNELS 3 Zrotation Xrotation Yrotation
                                    JOINT LeftFinger42
                                    {
                                        OFFSET   1.858760   0.000000   0.000000
                                        CHANNELS 3 Zrotation Xrotation Yrotation
                                        End Site
                                        {
                                            OFFSET   1.818440   0.000000   0.000000
                                        }
                                    }
                                }
                            }
                        }
                    }
                }
            }
            JOINT RightCollar
            {
                OFFSET  -3.911900  19.017000  -0.467062
                CHANNELS 3 Zrotation Xrotation Yrotation
                JOINT RightShoulder
                {
                    OFFSET -10.383700   0.000015   0.000000
                    CHANNELS 3 Zrotation Xrotation Yrotation
                    JOINT RightElbow
                    {
                        OFFSET -26.662100   0.001341   0.000385
                        CHANNELS 3 Zrotation Xrotation Yrotation
                        JOINT RightWrist
                        {
                            OFFSET -28.869000   0.000025  -0.000080
                            CHANNELS 3 Zrotation Xrotation Yrotation
                            JOINT RightFinger0
                            {
                                OFFSET  -2.044650  -2.323490   3.252850
                                CHANNELS 3 Zrotation Xrotation Yrotation
                                JOINT RightFinger01
                                {
                                    OFFSET  -3.088130   0.000000   0.000000
                                    CHANNELS 3 Zrotation Xrotation Yrotation
                                    JOINT RightFinger02
                                    {
                                        OFFSET  -2.639460   0.000000   0.000000
                                        CHANNELS 3 Zrotation Xrotation Yrotation
                                        End Site
                                        {
                                            OFFSET  -2.582190   0.000000   0.000000
                                        }
                                    }
                                }
                            }
                            JOINT RightFinger1
                            {
                                OFFSET  -8.364480   0.000000   3.252850
                                CHANNELS 3 Zrotation Xrotation Yrotation
                                JOINT RightFinger11
                                {
                                    OFFSET  -4.646930   0.000000   0.000000
                                    CHANNELS 3 Zrotation Xrotation Yrotation
                                    JOINT RightFinger12
                                    {
                                        OFFSET  -2.323470   0.000000   0.000000
                                        CHANNELS 3 Zrotation Xrotation Yrotation
                                        End Site
                                        {
                                            OFFSET  -2.273050   0.000000   0.000000
                                        }
                                    }
                                }
                            }
                            JOINT RightFinger2
                            {
                                OFFSET  -8.364480   0.000000   1.078090
                                CHANNELS 3 Zrotation Xrotation Yrotation
                                JOINT RightFinger21
                                {
                                    OFFSET  -5.111610   0.000000   0.000000
                                    CHANNELS 3 Zrotation Xrotation Yrotation
                                    JOINT RightFinger22
                                    {
                                        OFFSET  -2.788160   0.000000   0.000000
                                        CHANNELS 3 Zrotation Xrotation Yrotation
                                        End Site
                                        {
                                            OFFSET  -2.727660   0.000000   0.000000
                                        }
                                    }
                                }
                            }
                            JOINT RightFinger3
                            {
                                OFFSET  -7.899780   0.000000  -1.078090
                                CHANNELS 3 Zrotation Xrotation Yrotation
                                JOINT RightFinger31
                                {
                                    OFFSET  -4.646920   0.000000   0.000000
                                    CHANNELS 3 Zrotation Xrotation Yrotation
                                    JOINT RightFinger32
                                    {
                                        OFFSET  -2.323470   0.000000   0.000000
                                        CHANNELS 3 Zrotation Xrotation Yrotation
                                        End Site
                                        {
                                            OFFSET  -2.273050   0.000000   0.000000
                                        }
                                    }
                                }
                            }
                            JOINT RightFinger4
                            {
                                OFFSET  -7.435090   0.000000  -3.252850
                                CHANNELS 3 Zrotation Xrotation Yrotation
                                JOINT RightFinger41
                                {
                                    OFFSET  -3.717550   0.000000   0.000000
                                    CHANNELS 3 Zrotation Xrotation Yrotation
                                    JOINT RightFinger42
                                    {
                                        OFFSET  -1.858770   0.000000   0.000000
                                        CHANNELS 3 Zrotation Xrotation Yrotation
                                        End Site
                                        {
                                            OFFSET  -1.818440   0.000000   0.000000
                                        }
                                    }
                                }
                            }
                        }
                    }
                }
            }
        }
    }
    JOINT LeftHip
    {
        OFFSET   9.783010   0.000000   0.000000
        CHANNELS 3 Zrotation Xrotation Yrotation
        JOINT LeftKnee
        {
            OFFSET   0.000070 -41.789100   0.000028
            CHANNELS 3 Zrotation Xrotation Yrotation
            JOINT LeftAnkle
            {
                OFFSET   0.000087 -41.133200  -0.000100
                CHANNELS 3 Zrotation Xrotation Yrotation
                JOINT LeftToe
                {
                    OFFSET   0.000000  -6.358960  14.674500
                    CHANNELS 3 Zrotation Xrotation Yrotation
                    End Site
                    {
                        OFFSET   0.000000   0.000000   3.913200
                    }
                }
            }
        }
    }
    JOINT RightHip
    {
        OFFSET  -9.783020   0.000000   0.000000
        CHANNELS 3 Zrotation Xrotation Yrotation
        JOINT RightKnee
        {
            OFFSET   0.000044 -41.789100  -0.000870
            CHANNELS 3 Zrotation Xrotation Yrotation
            JOINT RightAnkle
            {
                OFFSET  -0.000090 -41.133200  -0.000245
                CHANNELS 3 Zrotation Xrotation Yrotation
                JOINT RightToe
                {
                    OFFSET   0.000000  -6.358960  14.674500
                    CHANNELS 3 Zrotation Xrotation Yrotation
                    End Site
                    {
                        OFFSET   0.000000   0.000000   3.913200
                    }
                }
            }
        }
    }
}
MOTION
Frames: 6
Frame Time:   0.016667
 -0.263491  89.452300  -0.066546  -1.677630  -0.512063   1.141290   0.576648   2.070110  -0.019702   1.155140   4.139920  -0.060323  -1.235650   0.636481   0.007466  -2.021900   1.289320   2.251870  -0.472233   1.704810   7.782330 -82.065200  -0.707410   1.650540  -1.086170   2.371190 -16.914600   9.137980   0.994493  -0.022346  42.182700  35.657400 -52.001900 -31.012100   0.000000   0.000728 -10.506100   0.000000   0.000799 -31.446500   2.123670  -3.467750 -25.781500   0.000974  -0.000581 -18.047100   0.001848   0.000661 -28.577800  -3.760940   6.867390 -42.945300  -0.002397   0.003136 -28.601600  -0.001277   0.001689 -27.083200  -5.146050   9.966370 -29.356800  -0.000222  -0.000752 -19.551600   0.001735   0.000075 -27.116100  -5.942140  11.429400 -41.567000   0.002999  -0.003904 -27.683600   0.002192  -0.002811   5.070680   5.451700   4.637920  75.434000 -13.635800   1.054760   3.226350  -4.789250  16.587300 -14.036800   6.158170   2.872040 -44.718900  38.392300  73.024300  27.278400   0.009792  -0.004937   8.639180   0.003121  -0.009439  30.934600   1.593140   2.656020  25.340500   0.003201  -0.001528  17.738300  -0.000748  -0.010111  28.300800  -0.740433  -1.374790  34.296800   0.005020  -0.007485  22.841600  -0.000905  -0.002015  28.255100  -2.042130  -3.793400  34.411200   0.003660   0.003828  22.917800   0.001053  -0.000804  31.352500  -2.244240  -3.677670  47.137400  -0.000392   0.000977  31.393500  -0.001034  -0.001132   3.555390   3.759060  -1.933120  -0.218256  -0.000545  10.714400  -1.735300  -3.744870   0.386795  -0.000000   0.000000   0.000000   0.133237   4.067110  -7.086900   1.299590   0.394394 -12.330200  -0.361791  -3.673670  -1.321280   0.000000   0.000000   0.000000
 -0.273638  89.452200  -0.066451  -1.677390  -0.521922   1.141490   0.576826   2.075030  -0.015403   1.155340   4.149810  -0.051810  -1.230220   0.642077   0.007466  -2.016830   1.300310   2.267120  -0.476095   1.704020   7.785530 -82.068700  -0.673880   1.650180  -1.086490   2.365630 -16.882600   9.125370   1.052920  -0.086281  42.175200  35.603300 -52.063800 -30.986200  -0.000066   0.000677 -10.493100   0.000000   0.000775 -31.433300   2.124500  -3.472190 -25.770400   0.000962  -0.000586 -18.039400   0.001841   0.000632 -28.576300  -3.767130   6.879170 -42.813800  -0.002403   0.003134 -28.514000  -0.001268   0.001682 -27.068100  -5.146060   9.965240 -29.291600  -0.000223  -0.000765 -19.508200   0.001725   0.000076 -27.088400  -5.892520  11.356500 -41.511400   0.002998  -0.003900 -27.646600   0.002196  -0.002808   5.076940   5.443590   4.649020  75.455900 -13.575700   1.080570   3.206520  -4.873800  16.502200 -14.060400   6.275350   2.920650 -44.800700  38.495000  73.209300  27.251700   0.009798  -0.004952   8.625860   0.003098  -0.009445  30.921700   1.631510   2.721160  25.331400   0.003193  -0.001507  17.731900  -0.000751  -0.010113  28.297200  -0.709588  -1.317720  34.265000   0.005016  -0.007478  22.820500  -0.000889  -0.001995  28.253600  -1.997300  -3.710610  34.371300   0.003657   0.003857  22.891300   0.001053  -0.000785  31.303900  -2.192140  -3.599090  47.059500  -0.000389   0.000993  31.341600  -0.001013  -0.001115   3.560560   3.744010  -1.934770  -0.218003   0.051669  10.717400  -1.742810  -3.770330   0.386706   0.000000   0.000000  -0.000000   0.140772   4.079150  -7.095580   1.300990   0.385747 -12.318700  -0.371433  -3.664220  -1.322510   0.000000   0.000000  -0.000000
 -0.290350  89.452100  -0.066357  -1.676930  -0.540370   1.141690   0.577969   2.083950  -0.011103   1.157500   4.167710  -0.043297  -1.222670   0.651565   0.007467  -2.009420   1.319140   2.290290  -0.488013   1.698540   7.796040 -82.087700  -0.622405   1.649810  -1.069600   2.360070 -16.850600   9.110690   1.154670  -0.150221  42.144000  35.534100 -52.111900 -30.960200  -0.000196   0.000573 -10.480100   0.000000   0.000718 -31.401900   2.125320  -3.476630 -25.745100   0.000932  -0.000599 -18.021600   0.001829   0.000561 -28.573700  -3.777520   6.898690 -42.594600  -0.002421   0.003131 -28.368000  -0.001243   0.001663 -27.046600  -5.146080   9.964110 -29.182500  -0.000224  -0.000793 -19.435600   0.001698   0.000076 -27.029600  -5.842860  11.283600 -41.410700   0.002994  -0.003892 -27.579500   0.002208  -0.002800   5.084150   5.423770   4.660040  75.489600 -13.479100   1.125710   3.183720  -4.959210  16.385700 -14.117000   6.501080   2.969930 -44.883400  38.596900  73.395300  27.225100   0.009824  -0.004987   8.612540   0.003036  -0.009465  30.908800   1.669880   2.786310  25.322200   0.003167  -0.001456  17.725600  -0.000761  -0.010118  28.293500  -0.678741  -1.260660  34.220800   0.005003  -0.007460  22.791100  -0.000850  -0.001950  28.252000  -1.952460  -3.627830  34.331400   0.003648   0.003920  22.864700   0.001054  -0.000737  31.255200  -2.140040  -3.520520  46.981600  -0.000382   0.001032  31.289700  -0.000964  -0.001070   3.570260   3.728970  -1.938910  -0.217763   0.103881  10.724400  -1.754400  -3.795790   0.386010  -0.000000   0.000000  -0.000000   0.151433   4.097170  -7.112370   1.304240   0.377114 -12.296400  -0.387263  -3.654770  -1.326420   0.000000   0.000000  -0.000000
 -0.303016  89.451900  -0.066752  -1.676460  -0.557476   1.141650   0.581091   2.090450  -0.011480   1.164040   4.180680  -0.044103  -1.220310   0.661537   0.007460  -2.006150   1.339500   2.306740  -0.508359   1.684910   7.813960 -82.137000  -0.584141   1.715520  -0.981326   2.398310 -16.958300   9.108950   1.269520  -0.127726  42.112800  35.530100 -52.072500 -30.989700  -0.000357   0.000443 -10.494800  -0.000072   0.000630 -31.347600   2.074990  -3.399910 -25.699000   0.000884  -0.000621 -17.989400   0.001816   0.000452 -28.572200  -3.784060   6.910010 -42.461900  -0.002447   0.003130 -28.279700  -0.001205   0.001635 -27.023200  -5.195310  10.069500 -29.130000  -0.000225  -0.000830 -19.400700   0.001654   0.000077 -26.972500  -5.859540  11.352900 -41.332300   0.002986  -0.003883 -27.527300   0.002225  -0.002789   5.084770   5.394100   4.658720  75.509400 -13.408600   1.167620   3.192900  -4.948930  16.346800 -14.197600   6.817970   2.960200 -44.677500  38.485100  73.197400  27.406200   0.009881  -0.005046   8.703130   0.002933  -0.009505  30.924000   1.609390   2.684440  25.331900   0.003119  -0.001380  17.732400  -0.000778  -0.010126  28.291300  -0.728060  -1.352340  34.202700   0.004981  -0.007436  22.779100  -0.000792  -0.001884  28.251400  -1.980070  -3.678760  34.339200   0.003632   0.004010  22.869900   0.001055  -0.000663  31.254700  -2.170920  -3.569500  46.985700  -0.000370   0.001089  31.292400  -0.000891  -0.001003   3.580330   3.745220  -1.947190  -0.216987   0.094346  10.735700  -1.761010  -3.791150   0.384251  -0.000000   0.000000   0.000000   0.155704   4.104210  -7.133210   1.310820   0.392374 -12.270300  -0.399128  -3.661690  -1.333950   0.000000   0.000000   0.000000
 -0.316008  89.451700  -0.067584  -1.675870  -0.580778   1.141300   0.584176   2.102110  -0.014119   1.170040   4.203970  -0.049744  -1.218570   0.667617   0.007448  -2.003120   1.352030   2.315260  -0.536632   1.667200   7.840820 -82.202000  -0.563790   1.878840  -0.862510   2.548190 -17.337800   9.105120   1.341060  -0.023076  42.069200  35.478100 -51.989400 -31.019100  -0.000517   0.000306 -10.509600  -0.000187   0.000536 -31.313700   2.004960  -3.291660 -25.667200   0.000825  -0.000647 -17.967100   0.001798   0.000315 -28.569600  -3.794500   6.929250 -42.243600  -0.002481   0.003129 -28.134300  -0.001159   0.001601 -26.995200  -5.244490  10.175000 -29.005200  -0.000226  -0.000868 -19.317500   0.001599   0.000079 -26.882700  -5.876200  11.422300 -41.206400   0.002976  -0.003875 -27.443400   0.002248  -0.002777   5.081840   5.357840   4.650840  75.529500 -13.344400   1.209450   3.239870  -4.904310  16.338600 -14.297100   7.026740   2.879900 -44.327800  38.229000  72.839100  27.587400   0.009945  -0.005102   8.793710   0.002804  -0.009554  30.964600   1.524190   2.539070  25.361700   0.003058  -0.001284  17.753200  -0.000800  -0.010135  28.288900  -0.777374  -1.444030  34.197100   0.004954  -0.007408  22.775300  -0.000724  -0.001809  28.254300  -2.007670  -3.729700  34.376500   0.003613   0.004109  22.894800   0.001055  -0.000571  31.273700  -2.201800  -3.618480  47.014100  -0.000356   0.001159  31.311300  -0.000802  -0.000921   3.592310   3.778720  -1.953030  -0.217321   0.079177  10.747100  -1.767720  -3.784610   0.380345   0.000000   0.000000  -0.000000   0.158898   4.114850  -7.151830   1.319130   0.416380 -12.243900  -0.411311  -3.673810  -1.342790  -0.000000   0.000000   0.000000
 -0.330046  89.451800  -0.068088  -1.675180  -0.613307   1.136980   0.585421   2.123440  -0.023759   1.172730   4.246520  -0.069403  -1.214930   0.663193   0.007438  -1.998230   1.343290   2.314740  -0.574255   1.643450   7.880090 -82.258500  -0.605316   2.119420  -0.729013   2.856020 -18.026100   9.043950   1.333890   0.221644  41.989700  35.255400 -51.806200 -30.997700  -0.000649   0.000169 -10.498900  -0.000271   0.000451 -31.329700   1.976570  -3.242200 -25.681000   0.000763  -0.000671 -17.976800   0.001772   0.000158 -28.559100  -3.815340   6.970110 -41.794600  -0.002521   0.003126 -27.835300  -0.001107   0.001563 -26.939600  -5.218710  10.140100 -28.685000  -0.000227  -0.000905 -19.104200   0.001534   0.000082 -26.727200  -5.855920  11.403100 -40.967100   0.002965  -0.003865 -27.284000   0.002274  -0.002764   5.070230   5.317970   4.629350  75.556900 -13.296800   1.254400   3.342200  -4.783560  16.468700 -14.396200   6.979140   2.581770 -43.933100  37.830900  72.354500  27.577400   0.009995  -0.005122   8.788730   0.002663  -0.009601  31.032800   1.485960   2.466860  25.417600   0.002986  -0.001175  17.792400  -0.000825  -0.010146  28.292800  -0.770816  -1.431750  34.242000   0.004927  -0.007377  22.805200  -0.000654  -0.001732  28.266100  -2.000690  -3.716250  34.467100   0.003591   0.004204  22.955200   0.001055  -0.000469  31.347300  -2.195080  -3.604850  47.119900  -0.000340   0.001240  31.381800  -0.000704  -0.000831   3.605990   3.814810  -1.948250  -0.221047   0.071080  10.753700  -1.777370  -3.783170   0.373502  -0.000000   0.000000  -0.000000   0.161616   4.126950  -7.158720   1.325060   0.436161 -12.224700  -0.424550  -3.687680  -1.351260  -0.000000   0.000000  -0.000000
